# xmcd CD database file
#
# Track frame offsets:
#	150
#	14973
#	26815
#	40831
#	54456
#	68500
#	83435
#	96726
#	111355
#	124673
#	139218
#	153875
#	167807
#	181934
#	195392
#	208683
#	222002
#
# Disc length: 3163 seconds
#
# Revision: 1
# Processed by: cddbd v1.5.1PL0 Copyright (c) Steve Scherf et al.
# Submitted via: CDex 1.51
#
DISCID=ee0c5911
DTITLE=° Billie Holiday ° - Good morning Heartache
DYEAR=1900
DGENRE=Jazz
TTITLE0=These foolish things
TTITLE1=Billie's blues
TTITLE2=Mean to me
TTITLE3=My man
TTITLE4=Strange fruit
TTITLE5=Yesterday
TTITLE6=Body and soul
TTITLE7=Solitude
TTITLE8=My old flame
TTITLE9=Embraceable you
TTITLE10=Lover man
TTITLE11=Good morning, Heartache
TTITLE12=As time goes by
TTITLE13=On the sunny side of the street
TTITLE14=I love you, Porgy
TTITLE15=Love for sale
TTITLE16=Tenderly
EXTD=
EXTT0=
EXTT1=
EXTT2=
EXTT3=
EXTT4=
EXTT5=
EXTT6=
EXTT7=
EXTT8=
EXTT9=
EXTT10=
EXTT11=
EXTT12=
EXTT13=
EXTT14=
EXTT15=
EXTT16=
PLAYORDER=
